<?xml version="1.0" encoding="UTF-8" standalone="no"?>
<!-- Created with Inkscape (http://www.inkscape.org/) -->

<svg
   xmlns:dc="http://purl.org/dc/elements/1.1/"
   xmlns:cc="http://creativecommons.org/ns#"
   xmlns:rdf="http://www.w3.org/1999/02/22-rdf-syntax-ns#"
   xmlns:svg="http://www.w3.org/2000/svg"
   xmlns="http://www.w3.org/2000/svg"
   xmlns:sodipodi="http://sodipodi.sourceforge.net/DTD/sodipodi-0.dtd"
   xmlns:inkscape="http://www.inkscape.org/namespaces/inkscape"
   width="500mm"
   height="500mm"
   viewBox="0 0 500 500"
   version="1.1"
   id="svg8"
   inkscape:version="0.92.4 (5da689c313, 2019-01-14)"
   sodipodi:docname="favicon_path.svg"
   inkscape:export-filename="C:\Users\david\Documents\Web\React\ceci-rod-fotos\src\assets\imgs\logo\favicon_path.png"
   inkscape:export-xdpi="100"
   inkscape:export-ydpi="100">
  <defs
     id="defs2" />
  <sodipodi:namedview
     id="base"
     pagecolor="#ffffff"
     bordercolor="#666666"
     borderopacity="1.0"
     inkscape:pageopacity="0.0"
     inkscape:pageshadow="2"
     inkscape:zoom="0.35"
     inkscape:cx="672.63901"
     inkscape:cy="835.20788"
     inkscape:document-units="mm"
     inkscape:current-layer="layer1"
     showgrid="false"
     inkscape:snap-page="true"
     fit-margin-top="0"
     fit-margin-left="0"
     fit-margin-right="0"
     fit-margin-bottom="0"
     inkscape:window-width="1920"
     inkscape:window-height="991"
     inkscape:window-x="2391"
     inkscape:window-y="-9"
     inkscape:window-maximized="1"
     inkscape:pagecheckerboard="false" />
  <metadata
     id="metadata5">
    <rdf:RDF>
      <cc:Work
         rdf:about="">
        <dc:format>image/svg+xml</dc:format>
        <dc:type
           rdf:resource="http://purl.org/dc/dcmitype/StillImage" />
        <dc:title />
      </cc:Work>
    </rdf:RDF>
  </metadata>
  <g
     inkscape:label="Layer 1"
     inkscape:groupmode="layer"
     id="layer1"
     transform="translate(-8.6767577e-6,203.00002)">
    <rect
       style="opacity:1;vector-effect:none;fill:#e6e8f5;fill-opacity:1;stroke:none;stroke-width:69.93481445;stroke-linecap:square;stroke-linejoin:round;stroke-miterlimit:4;stroke-dasharray:559.47856065, 559.47856064999996306;stroke-dashoffset:328.81890869;stroke-opacity:1;paint-order:stroke fill markers"
       id="rect4624"
       width="500"
       height="498.47198"
       x="8.6767577e-06"
       y="-203.00002"
       ry="169.19298" />
    <g
       aria-label="R"
       style="font-style:normal;font-variant:normal;font-weight:300;font-stretch:normal;font-size:400.03106689px;line-height:1.25;font-family:Oswald;-inkscape-font-specification:'Oswald Light';text-align:center;letter-spacing:0px;word-spacing:0px;text-anchor:middle;fill:#270945;fill-opacity:1;stroke:none;stroke-width:0.60004652"
       id="text4599-9">
      <path
         d="m 285.93061,209.01259 v -324.02517 h 65.20507 q 32.40251,0 53.60416,8.80069 21.20165,8.40065 31.20242,27.602141 10.40081,18.801461 10.40081,49.603853 0,18.80146 -4.00031,34.4026715 -4.00031,15.2011805 -12.801,26.0020195 -8.80068,10.400808 -23.2018,15.20118 L 452.34354,209.01259 H 408.74015 L 366.33686,57.000783 H 331.13412 V 209.01259 Z M 331.13412,24.598267 h 17.20134 q 19.20149,0 31.20242,-4.800373 12.00093,-4.800373 17.60137,-16.4012739 5.60043,-11.6009009 5.60043,-32.4025161 0,-28.402206 -10.4008,-40.803169 -10.40081,-12.800994 -41.2032,-12.800994 h -20.00156 z"
         style="font-style:normal;font-variant:normal;font-weight:normal;font-stretch:normal;font-family:Oswald;-inkscape-font-specification:Oswald;fill:#270945;fill-opacity:1;stroke-width:0.60004652"
         id="path827" />
    </g>
    <g
       aria-label="C"
       style="font-style:normal;font-variant:normal;font-weight:300;font-stretch:normal;font-size:400.03106689px;line-height:1.25;font-family:Oswald;-inkscape-font-specification:'Oswald Light';text-align:center;letter-spacing:0px;word-spacing:0px;text-anchor:middle;fill:#270945;fill-opacity:1;stroke:none;stroke-width:0.60004652"
       id="text4599">
      <path
         d="m 129.66283,212.61284 q -32.802545,0 -50.803943,-13.60105 Q 61.25752,185.41073 54.456992,162.60896 47.656464,139.40716 47.656464,111.40498 V -17.405019 q 0,-30.00233 6.800528,-52.804101 7.200559,-22.801771 25.201957,-35.60277 18.001398,-12.80099 50.003881,-12.80099 29.20227,0 45.60354,11.20087 16.80131,11.200871 24.00187,32.002486 7.20056,20.401584 7.20056,48.80379 V -7.0042115 H 177.66656 V -25.805672 q 0,-21.201646 -3.60028,-36.402827 -3.20025,-15.20118 -13.60106,-23.601833 -10.4008,-8.400652 -30.40236,-8.400652 -22.0017,0 -33.202575,9.200714 -10.800838,8.800684 -14.801149,25.201958 -3.60028,16.401273 -3.60028,38.002951 V 116.20536 q 0,24.00186 4.400342,40.0031 4.800373,16.00125 16.001243,24.00187 11.200869,8.00062 31.202419,8.00062 20.40159,0 30.40236,-8.80068 10.40081,-8.80069 13.60106,-24.4019 3.60028,-16.00124 3.60028,-37.20289 V 96.603835 h 28.80224 v 19.201495 q 0,28.4022 -6.80053,50.40391 -6.4005,21.60168 -23.2018,34.00264 -16.40128,12.40096 -46.80364,12.40096 z"
         style="font-style:normal;font-variant:normal;font-weight:300;font-stretch:normal;font-size:400.03106689px;font-family:Oswald;-inkscape-font-specification:'Oswald Light';fill:#270945;fill-opacity:1;stroke-width:0.60004652"
         id="path830" />
    </g>
  </g>
</svg>
